<svg xmlns="http://www.w3.org/2000/svg" width="210" height="138" viewBox="-0.4 -0.4 492 323" class="undefined"><style>.a{fill:#FFF;}.b{fill:none;}.c{fill:none;stroke-width:3.4;stroke:#FFF;}.d{fill:none;stroke-width:7.4;stroke:#FFF;}</style><path d="M206.9 101.1h1.2v1.4c-0.1 2.9-0.1 5.1-0.1 6.8 0 1.6 0 3.9 0.1 6.7v1.4c-1.5-0.1-1.8-0.2-3.8-0.2 -1.1-0.1-1.9-0.1-2.6-0.1h-5.5 -37.2v-1.1c3.9-1.3 4.5-3.1 4.5-12.3V61c0-9.3-0.6-11-4.5-12.4v-1.1l1.4 0.1c2.3 0 5.5 0.1 11.5 0.1 6 0 9.2-0.1 11.6-0.1l1.4-0.1v1.1c-3.9 1.4-4.5 3.1-4.5 12.4v46.1h15.9C204.7 107.1 206.3 106.2 206.9 101.1M275.4 83.4c0 21.1-11.7 35.2-32.2 35.2 -21.6 0-33.3-13.6-33.3-35.3 0-22.3 12.1-37.5 32.7-37.5C263.4 45.8 275.4 61 275.4 83.4M256.5 81.8c0-18.6-4.3-26.9-13.8-26.9 -9.5 0-13.8 8.3-13.8 27 0 19.1 4.2 27.5 13.6 27.5C252.4 109.4 256.5 101.5 256.5 81.8M345.7 47.7c-5.3 0-9-0.1-11.4-0.1l-1.3-0.1c0.5 1.1 0.7 1.8 0.7 2.6 0 1.2-1 4.5-2 7.5L318 87.2l-12.4-30.5 -1.5-3.8c-0.5-1.3-0.8-2.2-0.8-2.9 0-0.7 0.1-1.3 0.5-2.6l-1.4 0.1c-2.2 0-3.2 0.1-8.5 0.1 -5.3 0-9.1-0.1-11.4-0.1l-1.4-0.1v1.1c2 0.3 3.1 1.2 3.6 2.9 0.5 1.9 0.8 4.2 0.8 11v39.1c0 7.5-0.4 10.7-1.6 12.2 -0.6 0.7-1.2 1.1-2.8 1.9v1.1h1.4c2.4-0.1 5.3-0.1 8.7-0.1s6.3 0 8.7 0.1h1.4v-1.1c-2.5-1.1-3.3-2.1-3.8-3.9 -0.3-1.6-0.5-3.6-0.6-10.1l-0.6-26.3 9 22.9c4.4 10.9 5 13.1 5 15 0 1.1-0.3 2-1.4 3.6h15.5c-1-1.3-1.3-2.1-1.3-3.7 0-1 0.3-2.2 0.9-4.1 0.9-2.4 2.8-7.9 4.2-11.4l8.4-22.3v23.6c0 5-0.2 10.4-0.4 12.6 -0.1 0.8-0.3 1.7-0.7 2.4 -0.5 1-1.2 1.5-2.8 1.8v1.1h1.4c2.4-0.1 6.1-0.1 11.4-0.1 5.3 0 6.2 0 8.5 0.1h1.4v-1.1c-1.7-0.4-2.5-1.2-2.8-3.3 -0.3-2.4-0.5-6.1-0.5-12.8V57.7l0.1-4c0-0.9 0.1-1.8 0.2-2.6 0.2-0.6 0.5-1.2 1-1.7 0.6-0.6 1.2-0.8 2.4-0.8v-1.1l-1.4 0.1C351.9 47.6 351.1 47.7 345.7 47.7M419.8 97.8c0 5.4-2.6 10.9-6.7 14.2 -4.7 3.7-9.9 4.9-21.2 4.9 -1.9 0-3.1 0-7.2-0.1h-9.2l-9.3 0.1h-1.4v-1c3.9-1.4 4.4-3.1 4.4-12.2V60.8c0-9.1-0.6-10.8-4.4-12.2v-1.1l1.4 0.1 9.3 0.1 7.2-0.1h2.4c5.2 0 8 0.1 11.8 0.4 3.4 0.2 6.5 0.6 9.2 1.5 6.8 2.1 11.2 7.9 11.2 14.9 0 5.1-2.1 9.4-6.3 12.4 -3 2.3-5.1 3-11.6 4.1 4 0.5 5 0.7 7.5 1.5C414.9 84.4 419.8 90.2 419.8 97.8M384.8 77c1.5 0.3 2 0.4 3.6 0.4 7.4 0 10.7-3.3 10.7-10.8 0-6.7-3-9.9-9.3-9.9 -2 0-3.3 0.1-4.9 0.2V77zM401.6 97c0-7.8-3.9-11.5-12.2-11.5 -2 0-2.8 0-4.6 0.3v22.2c1.9 0.4 2.9 0.5 4.9 0.5C397.6 108.6 401.6 104.6 401.6 97M490.7 83.4c0 21.1-11.7 35.2-32.2 35.2 -21.6 0-33.3-13.6-33.3-35.3 0-22.3 12.1-37.5 32.7-37.5C478.6 45.8 490.7 61 490.7 83.4M471.8 81.8c0-18.6-4.3-26.9-13.8-26.9 -9.5 0-13.8 8.3-13.8 27 0 19.1 4.2 27.5 13.6 27.5C467.7 109.4 471.8 101.5 471.8 81.8M128.8 46.1c-0.1 0.1-0.3 0.2-0.5 0.3 16.8 2.8 26.4 17 26.4 37 0 21.1-11.7 35.2-32.2 35.2 -21.6 0-33.3-13.6-33.3-35.3 0-7.1 1.2-13.4 3.5-18.8 0.3-0.6 0.6-1.3 0.9-1.9 0.2-0.4 0.4-0.9 0.7-1.3 0.4-0.7 0.8-1.4 1.3-2.1 0.1-0.2 0.3-0.4 0.4-0.6 8.3-12.4 23.6-20.7 29.8-23.7 -4.6-4.4-17.6-14.9-36.9-14.9 -5.7 0-11.5 0.9-17.4 2.7C35.3 33.6 31.4 68.6 31.4 83.1c0 15.1 12.3 56.5 52 56.5 25.9 0 42-9.3 50-15.8 1.3-1.1 4-2.5 5.8-1.4 2 1.3 3.7 2.3 3.7 2.3l3.6 2.2 -0.6 1c-2.7-0.6-4.4 0.2-7.1 3 -8.8 10.2-26.4 24.7-54.7 24.7 -49.5 0-84.1-32.4-84.1-78.9 0-45.4 41.6-73.6 80.1-73.6 32.1 0 51 19.9 56 25.9 3.6-2.8 9.3-8.2 9.3-12.5 0-2.4-0.3-4.6-3.1-5.5 -2.7-1-4.9 1.4-5.1 2.7 -0.4 2.8 0.2 3.2 1 4.2l4.8 4 -6.3-0.4c-3.1-0.2-9-2.2-9-8.3 0-7 6.8-12.5 13.2-13.2C141.5 0 142.2 0 143 0c8.9 0 14.2 5.5 14.2 14.6C157.2 28.5 145.9 35.5 128.8 46.1M122.1 54.9c-6.9 0-11 4.4-12.8 13.8 1.8-1 3.8-1.6 5.7-1.6 1.7 0 6 0.4 9.3 3.6 2.3 2.3 3.5 5.6 3.5 9.4 -0.1 11.5-10 16.9-16.7 16.9 -0.4 0-0.9 0-1.4 0 1.9 8.5 5.9 12.4 12.3 12.4 10 0 14.1-7.9 14.1-27.6C135.9 63.2 131.6 54.9 122.1 54.9" class="a"></path><path d="M294.7 322.4c0.4-9.2 1.9-26.6 6.9-47.3 6.8-28.3 21.8-68.8 54.3-101.4l4.7-4.7 -6.6 0.2c-36.4 1.4-62.2 12.1-72.6 17.2l7.7-35.3c4.4 0.5 14.9 1.3 30.4 1.3 23.2 0 47.4-1.9 71.9-5.6 -17.8 18.9-31.4 41.6-40.7 67.8 -8.8 25-13.6 53-14.3 83.5C313.3 306.9 300.8 316.5 294.7 322.4" class="a"></path><rect width="490.7" height="322.4" class="b"></rect><polygon points="173 168.6 173 218.4 163.3 218.4 163.3 150.6 170.1 150.6 210.7 200.4 210.7 150.6 220.4 150.6 220.4 218.4 213.6 218.4 " class="a"></polygon><path d="M251.8 181.1c6.8 0 11.9-5.4 11.9-12.6 0-7.2-5.1-12.6-11.9-12.6 -6.8 0-11.9 5.4-11.9 12.6C239.8 175.7 244.9 181.1 251.8 181.1M251.8 151.2c9.4 0 16.7 7.4 16.7 17.2 0 9.7-7.3 17.2-16.7 17.2 -9.4 0-16.7-7.4-16.7-17.2C235.1 158.7 242.3 151.2 251.8 151.2" class="a"></path><path d="M251.8 181.1c6.8 0 11.9-5.4 11.9-12.6 0-7.2-5.1-12.6-11.9-12.6 -6.8 0-11.9 5.4-11.9 12.6C239.8 175.7 244.9 181.1 251.8 181.1zM251.8 151.2c9.4 0 16.7 7.4 16.7 17.2 0 9.7-7.3 17.2-16.7 17.2 -9.4 0-16.7-7.4-16.7-17.2C235.1 158.7 242.3 151.2 251.8 151.2z" class="c"></path><rect width="490.7" height="322.4" class="b"></rect><line x1="235.1" y1="203.5" x2="269.6" y2="203.5" class="d"></line></svg>